<?xml version="1.0" encoding="UTF-8" standalone="no"?>
<svg
   width="536.86517mm"
   height="545.21429mm"
   viewBox="0 0 536.86518 545.21429"
   version="1.1"
   id="svg6"
   inkscape:version="1.1-dev (1:1.0+devel+202010151021+433571b46d)"
   sodipodi:docname="insect.svg"
   xmlns:inkscape="http://www.inkscape.org/namespaces/inkscape"
   xmlns:sodipodi="http://sodipodi.sourceforge.net/DTD/sodipodi-0.dtd"
   xmlns="http://www.w3.org/2000/svg"
   xmlns:svg="http://www.w3.org/2000/svg">
  <defs
     id="defs2">
    <inkscape:path-effect
       effect="copy_rotate"
       starting_point="527.20067,38.175989"
       origin="450.3051,38.175989"
       id="path-effect899"
       is_visible="true"
       lpeversion="1"
       method="fuse_paths"
       num_copies="6"
       starting_angle="0"
       rotation_angle="60"
       gap="-0.01"
       copies_to_360="true"
       mirror_copies="false"
       split_items="false" />
  </defs>
  <sodipodi:namedview
     id="base"
     pagecolor="#ffffff"
     bordercolor="#666666"
     borderopacity="1.0"
     inkscape:pageopacity="0.0"
     inkscape:pageshadow="2"
     inkscape:zoom="0.20289232"
     inkscape:cx="2602.3656"
     inkscape:cy="554.4813"
     inkscape:document-units="mm"
     inkscape:current-layer="layer1"
     showgrid="false"
     inkscape:window-width="1868"
     inkscape:window-height="1016"
     inkscape:window-x="52"
     inkscape:window-y="27"
     inkscape:window-maximized="1" />
  <g
     inkscape:label="Layer 1"
     inkscape:groupmode="layer"
     id="layer1"
     transform="translate(39.672255,123.94681)">
    <path
       id="path823"
       style="opacity:1;fill:#a05a2c;stroke:#000000;stroke-width:1;stroke-linecap:round;stroke-linejoin:round;stroke-miterlimit:4;stroke-dasharray:none;paint-order:stroke fill markers"
       d="m 756.48904,-263.94842 c 0.26357,0.10052 0.52687,0.20173 0.7899,0.30363 58.6529,23.10194 98.39688,78.3363 101.65862,141.28044 v 0 c 0.47675,9.90634 7.43243,18.68985 16.66089,22.32709 12.96196,5.104461 27.60846,-1.26324 32.71407,-14.22274 1.63191,-4.14623 2.39748,-8.69803 1.72251,-13.10234 v 0 c -8.03886,-56.64456 -45.89942,-104.60195 -99.13778,-125.57628 -17.3501,-6.83119 -35.76676,-10.5579 -54.40821,-11.0098 z"
       sodipodi:nodetypes="cccccccccc" />
    <path
       id="path861"
       style="fill:#e3dedb;stroke:none;stroke-width:1;stroke-linecap:round;stroke-linejoin:round;stroke-miterlimit:4;stroke-dasharray:none;paint-order:stroke fill markers"
       d="m 0.97650007,-97.270856 c 0.27349143,-0.06912 0.54721393,-0.1371 0.82105563,-0.204785 61.2809963,-14.781789 125.5420843,7.600021 164.3690643,57.249495 6.08071,7.835039 16.81986,11.029514 26.46321,8.70567 13.54215,-3.267409 21.87325,-16.89322 18.60816,-30.434103 -1.04585,-4.331359 -3.03416,-8.49692 -6.11656,-11.714411 -39.11863,-41.74881 -97.65746,-59.25636 -153.284128,-45.84332 -18.126029,4.37472 -35.342191,11.90316 -50.86080193,22.241454 z M -5.3496512,-19.73489 c -4.0985273,3.831061 -7.9048828,7.97815 -11.3823818,12.4077379 0.164462,-0.1042792 0.329245,-0.2081749 0.494235,-0.311591 37.00382,-22.9009979 83.97627,-22.0700379 120.147808,2.1257615 5.67768,3.8282486 13.40964,3.6087127 19.23315,0.00645 8.17712,-5.0613884 10.70298,-15.7932754 5.64152,-23.9705244 -1.62001,-2.615347 -3.82219,-4.918863 -6.53766,-6.364774 -34.65909,-18.951222 -76.827576,-17.81851 -110.418175,2.966297 -6.1563735,3.811167 -11.90893993,8.21499 -17.1784962,13.140641 z M -12.41161,39.454016 c -4.263995,4.006793 -8.083874,8.476166 -11.38582,13.332099 0.114571,-0.08415 0.229535,-0.168184 0.344562,-0.251667 25.8063879,-18.521326 60.059592,-20.255713 87.613812,-4.436502 4.326577,2.505168 9.946725,1.960121 14.008118,-0.953373 5.70268,-4.093373 7.005942,-12.034623 2.910789,-17.737726 -1.310614,-1.823979 -3.029514,-3.392339 -5.079549,-4.310094 -26.190516,-12.075094 -56.846685,-9.149438 -80.2728839,7.66071 -2.8622621,2.054816 -5.5806342,4.292482 -8.1390281,6.696553 z m -5.532465,59.118807 c -3.222748,3.024137 -6.218863,6.337927 -8.946459,9.923637 -5.686974,7.47937 -10.013224,15.90065 -12.781721,24.87906 0.08481,-0.11409 0.1698,-0.22786 0.255246,-0.34145 19.229338,-25.28323 51.462734,-37.000637 82.447637,-29.97081 4.871501,1.12412 10.084148,-1.04717 13.110848,-5.024916 C 60.390607,92.450752 59.303819,84.47684 53.714406,80.227835 51.925932,78.869169 49.822401,77.87518 47.593243,77.599925 23.477359,74.350408 -0.54123732,82.24246 -17.944075,98.572823 Z M 96.558069,51.126839 A 164.29953,164.29953 0 0 0 48.645982,137.2058 c -1.078337,-1.55943 -2.700463,-2.7515 -4.686838,-3.26061 -1.413259,-0.3617 -2.926336,-0.42544 -4.337537,-0.026 -18.173745,4.92883 -32.3996401,19.20694 -37.2502638,37.38673 -1.57941847,5.92454 -2.10615968,12.0692 -1.55673938,18.15343 0.0229535,-0.0899 0.0460028,-0.1796 0.0694308,-0.26935 C 6.2261778,169.16148 22.754768,153.97389 43.161634,150.34227 c 1.303311,-0.22701 2.503104,-0.798 3.529129,-1.60135 a 164.29953,164.29953 0 0 0 43.582672,134.65554 164.29953,164.29953 0 0 0 132.106535,50.80022 c -0.85889,0.98165 -1.49434,2.15026 -1.79177,3.44061 -4.72982,20.18063 -20.78898,35.86376 -41.0771,40.11503 -0.0909,0.0185 -0.18168,0.0367 -0.27271,0.0548 6.04562,0.87762 12.20976,0.68392 18.21106,-0.5728 18.41548,-3.86046 33.44162,-17.29381 39.34599,-35.17444 0.47517,-1.38754 0.49371,-2.90147 0.20896,-4.33223 -0.4012,-2.01242 -1.50517,-3.69777 -3.0056,-4.85894 A 164.29953,164.29953 0 0 0 322.54305,289.6811 164.29953,164.29953 0 0 0 328.82768,57.411489 164.29953,164.29953 0 0 0 96.558069,51.126839 Z M 417.06918,187.15184 c -3.09677,2.93266 -5.49096,6.6912 -6.80178,11.07024 -2.84191,9.50358 -0.23284,20.39976 7.26193,26.89526 47.47724,41.45498 66.35172,106.83199 48.27776,167.22399 -0.0824,0.26979 -0.1658,0.53942 -0.2496,0.80878 11.16233,-14.93687 19.61109,-31.72036 24.95959,-49.58329 16.40146,-54.81996 2.08502,-114.21987 -37.48734,-155.53885 -3.04611,-3.25189 -7.09805,-5.46253 -11.36652,-6.74108 -8.96584,-2.6825 -18.25303,-0.14005 -24.59404,5.86495 z M 271.70875,328.97832 c -3.01155,2.91954 -4.64263,7.19081 -3.91781,11.34641 5.34402,31.31971 -8.09928,62.87231 -34.38536,80.70631 -0.11804,0.0792 -0.23621,0.15793 -0.35472,0.23645 9.11497,-2.27895 17.75826,-6.14383 25.53421,-11.41804 23.85891,-16.19012 37.17876,-43.95548 34.8787,-72.70369 -0.15433,-2.2408 -1.03272,-4.39534 -2.29269,-6.25468 -3.94054,-5.81101 -11.84439,-7.32702 -17.65359,-3.38628 -0.64618,0.43862 -1.25102,0.9329 -1.80872,1.47354 z m 55.14535,-22.13465 c -0.47045,0.43161 -0.91442,0.9044 -1.32652,1.4175 -3.12886,3.89788 -3.97667,9.48071 -1.70913,13.93642 14.30606,28.36934 10.72197,62.47865 -9.16776,87.24572 -0.0896,0.11034 -0.17968,0.22062 -0.26991,0.33048 8.04381,-4.85524 15.1706,-11.08838 21.0548,-18.41361 18.05234,-22.4829 22.63147,-52.936 11.99031,-79.74116 -0.80557,-2.09668 -2.27832,-3.89748 -4.02877,-5.30483 -4.96018,-3.98527 -11.99568,-3.64323 -16.543,0.5295 z m 55.97558,-43.32127 c -0.83789,0.79788 -1.60902,1.69117 -2.29604,2.6776 -3.9119,5.62019 -4.54887,13.32934 -1.03324,19.20572 22.2044,37.42702 20.49409,84.37567 -4.37439,120.08698 -0.11218,0.15916 -0.22484,0.31809 -0.33787,0.47666 10.53978,-7.38942 19.69811,-16.5753 27.05545,-27.13754 22.57082,-32.41751 25.98214,-74.46306 8.93286,-110.09622 -1.29695,-2.78969 -3.47801,-5.1132 -6.00194,-6.87228 -6.90512,-4.8092 -16.07764,-3.92408 -21.94483,1.65908 z" />
  </g>
</svg>
