<?xml version="1.0" encoding="UTF-8" standalone="no"?>
<svg
   width="623.73468mm"
   height="936.50946mm"
   viewBox="0 0 623.73468 936.50946"
   version="1.1"
   id="svg6"
   inkscape:version="1.1-dev (1:1.0+devel+202010151021+433571b46d)"
   sodipodi:docname="rabbit.svg"
   xmlns:inkscape="http://www.inkscape.org/namespaces/inkscape"
   xmlns:sodipodi="http://sodipodi.sourceforge.net/DTD/sodipodi-0.dtd"
   xmlns="http://www.w3.org/2000/svg"
   xmlns:svg="http://www.w3.org/2000/svg">
  <defs
     id="defs2" />
  <sodipodi:namedview
     id="base"
     pagecolor="#ffffff"
     bordercolor="#666666"
     borderopacity="1.0"
     inkscape:pageopacity="0.0"
     inkscape:pageshadow="2"
     inkscape:zoom="0.056568542"
     inkscape:cx="-4790.6484"
     inkscape:cy="4587.3552"
     inkscape:document-units="mm"
     inkscape:current-layer="layer1"
     showgrid="false"
     inkscape:window-width="1868"
     inkscape:window-height="1016"
     inkscape:window-x="52"
     inkscape:window-y="27"
     inkscape:window-maximized="1" />
  <g
     inkscape:label="Layer 1"
     inkscape:groupmode="layer"
     id="layer1"
     transform="translate(-302.5369,1074.8385)">
    <g
       id="g842"
       transform="translate(-1907.3307,-723.80437)">
      <circle
         style="fill:none;stroke:#000000;stroke-width:19.9999;stroke-linecap:round;stroke-linejoin:round;paint-order:stroke fill markers"
         id="path823"
         cx="152.16156"
         cy="121.38192"
         r="228.18169" />
      <ellipse
         style="fill:none;stroke:#000000;stroke-width:20;stroke-linecap:round;stroke-linejoin:round;paint-order:stroke fill markers"
         id="path825"
         cx="-242.34869"
         cy="-61.991482"
         rx="328.28137"
         ry="66.996017"
         transform="rotate(74.503611)" />
      <ellipse
         style="fill:none;stroke:#000000;stroke-width:20;stroke-linecap:round;stroke-linejoin:round;paint-order:stroke fill markers"
         id="ellipse827"
         cx="363.69241"
         cy="241.08603"
         rx="328.28137"
         ry="66.996017"
         transform="rotate(-68.875938)" />
    </g>
    <g
       id="g1081"
       transform="translate(598.89574,148.35214)">
      <path
         id="path1076"
         style="fill:#e3dbdb;stroke:none;stroke-width:75.5902;stroke-linecap:round;stroke-linejoin:round;paint-order:stroke fill markers"
         d="m -989.33008,-4585.2598 a 1240.7389,253.22494 74.502606 0 0 -12.78322,1.8926 1240.7389,253.22494 74.502606 0 0 87.49611,1263.2813 1240.7389,253.22494 74.502606 0 0 248.96289,706.5605 862.41899,862.41899 0 0 0 -273.29687,629.791 862.41899,862.41899 0 0 0 862.417967,862.4199 862.41899,862.41899 0 0 0 862.419923,-862.4199 862.41899,862.41899 0 0 0 -215.69336,-570.5195 253.22402,1240.7434 21.125375 0 0 359.77734,-750.7969 253.22402,1240.7434 21.125375 0 0 210.9648,-1248.6133 253.22402,1240.7434 21.125375 0 0 -683.38277,1066.1036 253.22402,1240.7434 21.125375 0 0 -218.51562,701.2187 862.41899,862.41899 0 0 0 -315.570313,-59.8105 862.41899,862.41899 0 0 0 -212.603517,26.6914 1240.7389,253.22494 74.502606 0 0 -137.43945,-635.9278 1240.7389,253.22494 74.502606 0 0 -562.75391,-1129.8711 z"
         transform="scale(0.26458333)" />
      <path
         id="circle844"
         style="fill:none;stroke:#000000;stroke-width:75.5902;stroke-linecap:round;stroke-linejoin:round;paint-order:stroke fill markers"
         d="m -989.33008,-4585.2598 a 1240.7389,253.22494 74.502606 0 0 -12.78322,1.8926 1240.7389,253.22494 74.502606 0 0 87.49611,1263.2813 1240.7389,253.22494 74.502606 0 0 248.96289,706.5605 862.41899,862.41899 0 0 0 -273.29687,629.791 862.41899,862.41899 0 0 0 862.417967,862.4199 862.41899,862.41899 0 0 0 862.419923,-862.4199 862.41899,862.41899 0 0 0 -215.69336,-570.5195 253.22402,1240.7434 21.125375 0 0 359.77734,-750.7969 253.22402,1240.7434 21.125375 0 0 210.9648,-1248.6133 253.22402,1240.7434 21.125375 0 0 -683.38277,1066.1036 253.22402,1240.7434 21.125375 0 0 -218.51562,701.2187 862.41899,862.41899 0 0 0 -315.570313,-59.8105 862.41899,862.41899 0 0 0 -212.603517,26.6914 1240.7389,253.22494 74.502606 0 0 -137.43945,-635.9278 1240.7389,253.22494 74.502606 0 0 -562.75391,-1129.8711 z"
         transform="scale(0.26458333)" />
      <path
         id="path1069"
         style="fill:none;stroke:#000000;stroke-width:75.5902;stroke-linecap:round;stroke-linejoin:round;paint-order:stroke fill markers"
         d="m -438.76687,-2766.3757 a 862.46253,862.40848 0 0 1 362.242409,-79.7558 862.46253,862.40848 0 0 1 481.164001,146.686"
         transform="scale(0.26458333)" />
    </g>
  </g>
</svg>
