<?xml version="1.0" encoding="UTF-8" standalone="no"?>
<svg
   width="861.88684mm"
   height="890.71698mm"
   viewBox="0 0 861.88685 890.71695"
   version="1.1"
   id="svg6"
   inkscape:version="1.1-dev (1:1.0+devel+202010151021+433571b46d)"
   sodipodi:docname="S.svg"
   xmlns:inkscape="http://www.inkscape.org/namespaces/inkscape"
   xmlns:sodipodi="http://sodipodi.sourceforge.net/DTD/sodipodi-0.dtd"
   xmlns="http://www.w3.org/2000/svg"
   xmlns:svg="http://www.w3.org/2000/svg">
  <defs
     id="defs2" />
  <sodipodi:namedview
     id="base"
     pagecolor="#ffffff"
     bordercolor="#666666"
     borderopacity="1.0"
     inkscape:pageopacity="0.0"
     inkscape:pageshadow="2"
     inkscape:zoom="0.16193113"
     inkscape:cx="1883.5168"
     inkscape:cy="1602.5332"
     inkscape:document-units="mm"
     inkscape:current-layer="layer1"
     showgrid="false"
     inkscape:snap-intersection-paths="true"
     inkscape:snap-global="false"
     inkscape:window-width="1868"
     inkscape:window-height="1016"
     inkscape:window-x="52"
     inkscape:window-y="27"
     inkscape:window-maximized="1" />
  <g
     inkscape:label="Layer 1"
     inkscape:groupmode="layer"
     id="layer1"
     transform="translate(475.31684,545.63328)">
    <g
       id="g1085"
       transform="translate(30.983345,-9.1692878)">
      <path
         id="path930"
         style="opacity:1;fill:#ffffff;fill-opacity:1;stroke:#000000;stroke-width:20.3;stroke-linecap:round;stroke-linejoin:round;paint-order:stroke fill markers"
         d="m -484.01384,-239.11483 c -16.26625,-16.26908 -16.26686,-42.64389 -10e-4,-58.9143 l 0.004,-0.004 29.46062,-29.46061 196.99559,196.99559 105.15224,105.152237 12.68988,12.68987 a 83.326996,83.326996 0 0 1 -117.8422,-3.8e-4 l -226.42551,-226.425517 -0.027,-0.0263 z" />
      <path
         id="path934"
         style="opacity:1;fill:#ffffff;fill-opacity:1;stroke:#000000;stroke-width:20.3;stroke-linecap:round;stroke-linejoin:round;paint-order:stroke fill markers"
         d="m -151.0925,212.44126 c 16.26625,16.26908 16.26686,42.64389 0.001,58.9143 l -0.004,0.004 -29.46063,29.46061 L -377.55171,103.82458 -482.70395,-1.3276601 -495.39383,-14.01753 a 83.326996,83.326996 0 0 1 117.8422,3.8e-4 l 226.42551,226.42552 0.027,0.0263 z" />
    </g>
    <g
       id="g945"
       transform="matrix(1.0568584,-0.28318435,0.28318435,1.0568584,341.51287,-67.430737)"
       style="stroke-width:0.91396">
      <g
         id="g950" />
    </g>
    <g
       id="g1081"
       transform="translate(-228.38452,10.828768)">
      <rect
         style="fill:#ffffff;fill-opacity:1;stroke:#000000;stroke-width:20.3;stroke-linecap:round;stroke-linejoin:round;paint-order:stroke fill markers"
         id="rect936"
         width="441.58221"
         height="91.17202"
         x="-316.49524"
         y="-448.09863"
         transform="rotate(30)" />
      <rect
         style="fill:#ffffff;fill-opacity:1;stroke:#000000;stroke-width:20.3;stroke-linecap:round;stroke-linejoin:round;paint-order:stroke fill markers"
         id="rect938"
         width="441.58221"
         height="91.17202"
         x="-285.4473"
         y="-417.05072"
         transform="rotate(30)" />
      <rect
         style="fill:#ffffff;fill-opacity:1;stroke:#000000;stroke-width:20.3;stroke-linecap:round;stroke-linejoin:round;paint-order:stroke fill markers"
         id="rect940"
         width="441.58221"
         height="91.17202"
         x="-254.39937"
         y="-386.00278"
         transform="rotate(30)" />
      <rect
         style="fill:#ffffff;fill-opacity:1;stroke:#000000;stroke-width:20.3;stroke-linecap:round;stroke-linejoin:round;paint-order:stroke fill markers"
         id="rect952"
         width="441.58221"
         height="91.17202"
         x="-285.4473"
         y="-356.92664"
         transform="rotate(30)" />
      <rect
         style="fill:#ffffff;fill-opacity:1;stroke:#000000;stroke-width:20.3;stroke-linecap:round;stroke-linejoin:round;paint-order:stroke fill markers"
         id="rect954"
         width="441.58221"
         height="91.17202"
         x="-254.39937"
         y="-325.87869"
         transform="rotate(30)" />
    </g>
    <g
       id="g1074"
       transform="translate(-340.90485,-278.14678)">
      <path
         id="path1065"
         style="fill:#d45500;fill-opacity:1;stroke:none;stroke-width:20.3;stroke-linecap:round;stroke-linejoin:round;paint-order:stroke fill markers"
         d="m 350.08984,258.78723 c -16.83327,0.002 -30.47953,13.64708 -30.48192,30.48079 v 0.005 30.48495 l 218.8588,165.84409 H 445.5633 336.75495 323.62385 a 60.969754,60.969754 0 0 0 60.96991,60.96955 h 234.29828 0.0276 0.007 c 16.83328,-0.002 30.47952,-13.64707 30.48192,-30.48079 v -0.004 -30.48496 L 429.55136,319.75753 h 93.90163 108.80836 13.13109 a 60.969754,60.969754 0 0 0 -60.9699,-60.96992 H 350.12426 l -0.0276,-3.9e-4 z" />
      <path
         id="path1063"
         style="fill:#803300;fill-opacity:1;stroke:none;stroke-width:20.3;stroke-linecap:round;stroke-linejoin:round;paint-order:stroke fill markers"
         d="m 327.59571,234.7076 c -19.65023,0.002 -35.5801,15.93083 -35.5829,35.58158 v 0.006 35.58643 L 547.49642,499.47884 H 439.04613 312.02931 296.70078 a 71.172703,71.172703 0 0 0 71.17289,71.17247 h 273.5068 0.0322 0.008 c 19.65023,-0.002 35.5801,-15.93083 35.58291,-35.58159 v -0.005 -35.58645 l -256.649,-193.5973 h 109.61555 127.01684 15.3285 A 71.172703,71.172703 0 0 0 601.14268,234.70804 H 327.6359 l -0.0322,-4.5e-4 z" />
      <path
         id="rect956"
         style="fill:#552200;fill-opacity:1;stroke:none;stroke-width:20.3;stroke-linecap:round;stroke-linejoin:round;paint-order:stroke fill markers"
         d="m 300.79971,206.02279 c -23.00594,0.002 -41.65618,18.65138 -41.65946,41.65792 v 0.006 41.6636 l 299.113,226.65872 H 431.2827 282.575 264.6288 a 83.326996,83.326996 0 0 0 83.32721,83.32671 h 320.21405 l 0.0377,5e-4 h 0.009 c 23.00595,-0.002 41.65619,-18.65135 41.65947,-41.6579 v -0.006 -41.66362 L 409.39928,289.35052 H 537.73407 686.44181 704.388 A 83.326996,83.326996 0 0 0 621.06078,206.02331 H 300.84674 l -0.0377,-5.2e-4 z" />
    </g>
  </g>
</svg>
