<?xml version="1.0" encoding="UTF-8" standalone="no"?>
<svg
   width="210mm"
   height="297mm"
   viewBox="0 0 210 297"
   version="1.1"
   id="svg6"
   inkscape:version="1.1-dev (1:1.0+devel+202010151021+433571b46d)"
   sodipodi:docname="stair.svg"
   xmlns:inkscape="http://www.inkscape.org/namespaces/inkscape"
   xmlns:sodipodi="http://sodipodi.sourceforge.net/DTD/sodipodi-0.dtd"
   xmlns="http://www.w3.org/2000/svg"
   xmlns:svg="http://www.w3.org/2000/svg">
  <defs
     id="defs2" />
  <sodipodi:namedview
     id="base"
     pagecolor="#ffffff"
     bordercolor="#666666"
     borderopacity="1.0"
     inkscape:pageopacity="0.0"
     inkscape:pageshadow="2"
     inkscape:zoom="0.13857293"
     inkscape:cx="-3694.8053"
     inkscape:cy="-3121.1002"
     inkscape:document-units="mm"
     inkscape:current-layer="layer1"
     showgrid="false"
     showborder="false"
     inkscape:showpageshadow="false"
     inkscape:window-width="1868"
     inkscape:window-height="1016"
     inkscape:window-x="52"
     inkscape:window-y="27"
     inkscape:window-maximized="1" />
  <g
     inkscape:label="Layer 1"
     inkscape:groupmode="layer"
     id="layer1">
    <g
       id="g1113">
      <rect
         style="fill:#dbdee3;stroke:none;stroke-width:5.37942;stroke-linecap:round;stroke-linejoin:round;stroke-miterlimit:4;stroke-dasharray:none;paint-order:stroke fill markers"
         id="rect823"
         width="206.55008"
         height="356.84967"
         x="116.06627"
         y="78.59449"
         transform="matrix(0.86391126,-0.50364406,0,1,0,0)" />
      <path
         style="fill:#b7bec8;stroke:none;stroke-width:0.264583px;stroke-linecap:butt;stroke-linejoin:miter;stroke-opacity:1"
         d="M 278.71187,-83.889309 100.27095,20.138403 H -201.83989 L -52.825266,-65.89523 Z"
         id="path846" />
      <path
         style="fill:#939dac;stroke:none;stroke-width:0.264583px;stroke-linecap:butt;stroke-linejoin:miter;stroke-opacity:1"
         d="m -201.83989,20.138403 -2.29263,-270.984943 92.12528,-53.18855 59.181974,238.13986 z"
         id="path848" />
      <path
         style="fill:#535d6c;stroke:none;stroke-width:0.264583px;stroke-linecap:butt;stroke-linejoin:miter;stroke-opacity:1"
         d="m -204.13252,-250.84654 234.457191,8.28704 41.657314,-24.05086 -183.989225,-37.42473 z"
         id="path850" />
      <circle
         id="path852"
         style="fill:#000000;stroke:none;stroke-width:0.264583"
         cx="30.324671"
         cy="-242.55949"
         r="0.39687499" />
      <path
         style="fill:#373e48;stroke:none;stroke-width:0.264583px;stroke-linecap:butt;stroke-linejoin:miter;stroke-opacity:1"
         d="m 30.324671,-242.5595 v -102.53085 l 25.361984,-14.64275 16.29533,93.12274 z"
         id="path854" />
      <path
         style="fill:#1c1f24;stroke:none;stroke-width:0.264583px;stroke-linecap:butt;stroke-linejoin:miter;stroke-opacity:1"
         d="m 55.686655,-359.7331 -54.82955323,-14.69152 -19.32053477,11.1547 48.788104,18.17957 25.361984,-14.64275"
         id="path856" />
      <path
         style="fill:#d7e3f4;stroke:none;stroke-width:0.264583px;stroke-linecap:butt;stroke-linejoin:miter;stroke-opacity:1"
         d="m -18.463433,-363.26992 0.769219,-27.49508 9.51988,-5.49629 9.03143577,21.83667 z"
         id="path858" />
      <path
         style="fill:#2c5aa0;stroke:none;stroke-width:0.264583px;stroke-linecap:butt;stroke-linejoin:miter;stroke-opacity:1"
         d="m -26.207008,-401.13352 v 6.93301 l -2.661933,1.53689 -2.12067,-5.70868 z"
         id="path862" />
      <path
         style="fill:#afc6e9;stroke:none;stroke-width:0.264583px;stroke-linecap:butt;stroke-linejoin:miter;stroke-opacity:1"
         d="m -8.174334,-396.26129 -18.032674,-4.87223 -4.782603,2.76122 13.295397,7.6073 z"
         id="path860" />
      <rect
         style="fill:#dbdee3;stroke:none;stroke-width:5.37942;stroke-linecap:round;stroke-linejoin:round;stroke-miterlimit:4;stroke-dasharray:none;paint-order:stroke fill markers"
         id="rect961"
         width="206.55008"
         height="356.84967"
         x="179.81813"
         y="897.56683"
         transform="matrix(-0.86391126,0.50364406,0,-1,0,0)" />
      <path
         style="fill:#b7bec8;stroke:none;stroke-width:0.264583px;stroke-linecap:butt;stroke-linejoin:miter;stroke-opacity:1"
         d="M -333.78782,-702.97481 -155.3469,-807.00252 H 146.76394 L -2.250682,-720.96889 Z"
         id="path963" />
      <path
         style="fill:#939dac;stroke:none;stroke-width:0.264583px;stroke-linecap:butt;stroke-linejoin:miter;stroke-opacity:1"
         d="m 146.76394,-807.00252 2.29263,270.98494 -92.125278,53.18855 -59.181974,-238.13986 z"
         id="path965" />
      <path
         style="fill:#535d6c;stroke:none;stroke-width:0.264583px;stroke-linecap:butt;stroke-linejoin:miter;stroke-opacity:1"
         d="m 149.05657,-536.01758 -234.457189,-8.28704 -41.657311,24.05086 183.989222,37.42473 z"
         id="path967" />
      <circle
         id="circle969"
         style="fill:#000000;stroke:none;stroke-width:0.264583"
         cx="85.40062"
         cy="544.30463"
         r="0.39687499"
         transform="scale(-1)" />
      <path
         style="fill:#373e48;stroke:none;stroke-width:0.264583px;stroke-linecap:butt;stroke-linejoin:miter;stroke-opacity:1"
         d="m -85.400619,-544.30462 v 102.53085 l -25.361981,14.64275 -16.29533,-93.12274 z"
         id="path971" />
      <path
         style="fill:#1c1f24;stroke:none;stroke-width:0.264583px;stroke-linecap:butt;stroke-linejoin:miter;stroke-opacity:1"
         d="m -110.7626,-427.13102 54.82955,14.69152 19.320535,-11.1547 -48.788104,-18.17957 -25.361981,14.64275"
         id="path973" />
      <path
         style="fill:#d7e3f4;stroke:none;stroke-width:0.264583px;stroke-linecap:butt;stroke-linejoin:miter;stroke-opacity:1"
         d="m -36.612515,-423.5942 -0.769219,27.49508 -9.51988,5.49629 -9.031436,-21.83667 z"
         id="path975" />
      <path
         style="fill:#2c5aa0;stroke:none;stroke-width:0.264583px;stroke-linecap:butt;stroke-linejoin:miter;stroke-opacity:1"
         d="m -28.86894,-385.7306 v -6.93301 l 2.661933,-1.53689 2.12067,5.70868 z"
         id="path977" />
      <path
         style="fill:#afc6e9;stroke:none;stroke-width:0.264583px;stroke-linecap:butt;stroke-linejoin:miter;stroke-opacity:1"
         d="m -46.901614,-390.60283 18.032674,4.87223 4.782603,-2.76122 -13.295397,-7.6073 z"
         id="path979" />
    </g>
    <path
       style="fill:#0b1728;fill-opacity:1;stroke:none;stroke-width:0.264583px;stroke-linecap:butt;stroke-linejoin:miter;stroke-opacity:1"
       d="m -1011.9773,-519.12348 191.35273,8.28704 41.65731,-24.05086 -179.5597,-8.43782 z"
       id="path1049"
       sodipodi:nodetypes="ccccc" />
    <circle
       id="circle1051"
       style="fill:#000000;stroke:none;stroke-width:0.264583"
       cx="-820.62457"
       cy="-510.83646"
       r="0.39687499" />
    <path
       style="fill:#214478;fill-opacity:1;stroke:none;stroke-width:0.264583px;stroke-linecap:butt;stroke-linejoin:miter;stroke-opacity:1"
       d="m -820.62457,-510.83644 v -102.53085 l 25.36198,-14.64275 16.29533,93.12274 z"
       id="path1053" />
    <path
       style="fill:#3771c8;stroke:none;stroke-width:0.264583px;stroke-linecap:butt;stroke-linejoin:miter;stroke-opacity:1"
       d="m -795.26259,-628.01004 -54.82955,-14.69152 -19.32053,11.1547 48.7881,18.17957 25.36198,-14.64275"
       id="path1055" />
    <path
       style="fill:#d7e3f4;stroke:none;stroke-width:0.264583px;stroke-linecap:butt;stroke-linejoin:miter;stroke-opacity:1"
       d="m -869.41267,-631.54686 0.76922,-27.49508 9.51988,-5.49629 9.03143,21.83667 z"
       id="path1057" />
    <path
       style="fill:#2c5aa0;stroke:none;stroke-width:0.264583px;stroke-linecap:butt;stroke-linejoin:miter;stroke-opacity:1"
       d="m -877.15625,-669.41046 v 6.93301 l -2.66193,1.53689 -2.12067,-5.70868 z"
       id="path1059" />
    <path
       style="fill:#afc6e9;stroke:none;stroke-width:0.264583px;stroke-linecap:butt;stroke-linejoin:miter;stroke-opacity:1"
       d="m -859.12357,-664.53823 -18.03268,-4.87223 -4.7826,2.76122 13.2954,7.6073 z"
       id="path1061" />
    <circle
       id="circle1065"
       style="fill:#000000;stroke:none;stroke-width:0.264583"
       cx="936.34985"
       cy="812.5816"
       r="0.39687499"
       transform="scale(-1)" />
    <path
       style="fill:#214478;stroke:none;stroke-width:0.264583px;stroke-linecap:butt;stroke-linejoin:miter;stroke-opacity:1"
       d="m -936.34986,-812.58156 v 102.53085 l -25.36198,14.64275 -16.29533,-93.12274 z"
       id="path1067" />
    <path
       style="fill:#0b1728;stroke:none;stroke-width:0.264583px;stroke-linecap:butt;stroke-linejoin:miter;stroke-opacity:1"
       d="m -759.83629,-804.29452 -176.51357,-8.28704 -41.65731,24.05086 178.94173,10.83829 z"
       id="path1063"
       sodipodi:nodetypes="ccccc" />
    <path
       style="fill:#3771c8;stroke:none;stroke-width:0.264583px;stroke-linecap:butt;stroke-linejoin:miter;stroke-opacity:1"
       d="m -961.71184,-695.40796 54.82955,14.69152 19.32053,-11.1547 -48.7881,-18.17957 -25.36198,14.64275"
       id="path1069" />
    <path
       style="fill:#d7e3f4;stroke:none;stroke-width:0.264583px;stroke-linecap:butt;stroke-linejoin:miter;stroke-opacity:1"
       d="m -887.56176,-691.87114 -0.76921,27.49508 -9.51988,5.49629 -9.03144,-21.83667 z"
       id="path1071" />
    <path
       style="fill:#2c5aa0;stroke:none;stroke-width:0.264583px;stroke-linecap:butt;stroke-linejoin:miter;stroke-opacity:1"
       d="m -879.81818,-654.00754 v -6.93301 l 2.66193,-1.53689 2.12067,5.70868 z"
       id="path1073" />
    <path
       style="fill:#afc6e9;stroke:none;stroke-width:0.264583px;stroke-linecap:butt;stroke-linejoin:miter;stroke-opacity:1"
       d="m -897.85085,-658.87977 18.03267,4.87223 4.7826,-2.76122 -13.29539,-7.6073 z"
       id="path1075" />
    <g
       id="g1265"
       transform="translate(-568.04555,-286.5521)">
      <path
         style="fill:#0b1728;fill-opacity:1;stroke:none;stroke-width:0.264583px;stroke-linecap:butt;stroke-linejoin:miter;stroke-opacity:1"
         d="m -1011.9773,-519.12348 191.35273,8.28704 41.65731,-24.05086 -179.5597,-8.43782 z"
         id="path1237"
         sodipodi:nodetypes="ccccc" />
      <circle
         id="circle1239"
         style="fill:#000000;stroke:none;stroke-width:0.264583"
         cx="-820.62457"
         cy="-510.83646"
         r="0.39687499" />
      <path
         style="fill:#214478;fill-opacity:1;stroke:none;stroke-width:0.264583px;stroke-linecap:butt;stroke-linejoin:miter;stroke-opacity:1"
         d="m -820.62457,-510.83644 v -102.53085 l 25.36198,-14.64275 16.29533,93.12274 z"
         id="path1241" />
      <path
         style="fill:#3771c8;stroke:none;stroke-width:0.264583px;stroke-linecap:butt;stroke-linejoin:miter;stroke-opacity:1"
         d="m -795.26259,-628.01004 -54.82955,-14.69152 -19.32053,11.1547 48.7881,18.17957 25.36198,-14.64275"
         id="path1243" />
      <path
         style="fill:#d7e3f4;stroke:none;stroke-width:0.264583px;stroke-linecap:butt;stroke-linejoin:miter;stroke-opacity:1"
         d="m -869.41267,-631.54686 0.76922,-27.49508 9.51988,-5.49629 9.03143,21.83667 z"
         id="path1245" />
      <path
         style="fill:#2c5aa0;stroke:none;stroke-width:0.264583px;stroke-linecap:butt;stroke-linejoin:miter;stroke-opacity:1"
         d="m -877.15625,-669.41046 v 6.93301 l -2.66193,1.53689 -2.12067,-5.70868 z"
         id="path1247" />
      <path
         style="fill:#afc6e9;stroke:none;stroke-width:0.264583px;stroke-linecap:butt;stroke-linejoin:miter;stroke-opacity:1"
         d="m -859.12357,-664.53823 -18.03268,-4.87223 -4.7826,2.76122 13.2954,7.6073 z"
         id="path1249" />
      <circle
         id="circle1251"
         style="fill:#000000;stroke:none;stroke-width:0.264583"
         cx="936.34985"
         cy="812.5816"
         r="0.39687499"
         transform="scale(-1)" />
      <path
         style="fill:#214478;stroke:none;stroke-width:0.264583px;stroke-linecap:butt;stroke-linejoin:miter;stroke-opacity:1"
         d="m -936.34986,-812.58156 v 102.53085 l -25.36198,14.64275 -16.29533,-93.12274 z"
         id="path1253" />
      <path
         style="fill:#0b1728;stroke:none;stroke-width:0.264583px;stroke-linecap:butt;stroke-linejoin:miter;stroke-opacity:1"
         d="m -759.83629,-804.29452 -176.51357,-8.28704 -41.65731,24.05086 178.94173,10.83829 z"
         id="path1255"
         sodipodi:nodetypes="ccccc" />
      <path
         style="fill:#3771c8;stroke:none;stroke-width:0.264583px;stroke-linecap:butt;stroke-linejoin:miter;stroke-opacity:1"
         d="m -961.71184,-695.40796 54.82955,14.69152 19.32053,-11.1547 -48.7881,-18.17957 -25.36198,14.64275"
         id="path1257" />
      <path
         style="fill:#d7e3f4;stroke:none;stroke-width:0.264583px;stroke-linecap:butt;stroke-linejoin:miter;stroke-opacity:1"
         d="m -887.56176,-691.87114 -0.76921,27.49508 -9.51988,5.49629 -9.03144,-21.83667 z"
         id="path1259" />
      <path
         style="fill:#2c5aa0;stroke:none;stroke-width:0.264583px;stroke-linecap:butt;stroke-linejoin:miter;stroke-opacity:1"
         d="m -879.81818,-654.00754 v -6.93301 l 2.66193,-1.53689 2.12067,5.70868 z"
         id="path1261" />
      <path
         style="fill:#afc6e9;stroke:none;stroke-width:0.264583px;stroke-linecap:butt;stroke-linejoin:miter;stroke-opacity:1"
         d="m -897.85085,-658.87977 18.03267,4.87223 4.7826,-2.76122 -13.29539,-7.6073 z"
         id="path1263" />
    </g>
  </g>
</svg>
